<!--?xml version="1.0" standalone="no"?-->

<svg xmlns="http://www.w3.org/2000/svg" width="300.000000pt" height="300.000000pt" viewBox="0 0 300.000000 300.000000" preserveAspectRatio="xMidYMid meet">
<g transform="translate(0.000000,300.000000) scale(0.100000,-0.100000)" fill="#252525" stroke="none">
<path style="position: relative;" class="node" id="node1" d="M1223 2328 c-108 -89 -405 -337 -541 -452 -46 -39 -112 -93 -145
-119 -34 -27 -86 -69 -114 -94 l-53 -45 0 -129 c0 -71 3 -129 6 -129 4 0 34
24 68 53 108 95 854 715 874 728 18 11 33 1 151 -98 l131 -110 59 23 c32 13
82 30 111 37 62 16 76 -2 -140 177 -90 74 -191 159 -224 188 -34 28 -65 52
-71 52 -6 0 -56 -37 -112 -82z"></path>
<path style="position: relative;" class="node" id="node2" d="M1274 2037 c-27 -24 -76 -65 -110 -93 -142 -115 -772 -644 -783 -658
-12 -14 -7 -23 66 -125 1 -2 24 15 51 38 28 22 52 41 55 41 3 0 5 -140 4 -311
-1 -260 2 -312 14 -320 8 -5 244 -9 549 -9 l535 0 -54 30 c-202 111 -333 285
-380 502 -25 117 -26 164 -5 277 34 186 148 366 291 464 18 12 33 25 33 29 0
10 -196 178 -208 178 -5 0 -32 -19 -58 -43z"></path>
<path style="position: relative;" class="node" id="node3" d="M1818 1955 c-122 -25 -281 -120 -365 -221 -61 -71 -112 -163 -140
-249 -35 -110 -38 -285 -5 -388 60 -188 162 -319 320 -412 123 -73 192 -90
352 -89 122 0 143 3 214 28 187 67 317 181 400 351 58 120 80 221 73 333 -12
190 -73 328 -207 462 -138 139 -288 201 -485 199 -49 -1 -120 -7 -157 -14z
m359 -95 c145 -51 276 -168 344 -305 90 -184 90 -369 -1 -551 -52 -104 -152
-206 -255 -262 -216 -118 -511 -84 -689 79 -197 180 -259 414 -177 662 54 164
201 313 371 376 78 28 91 30 225 26 93 -2 134 -8 182 -25z"></path>
<path style="position: relative;" class="node" id="node4" d="M1845 1791 c-136 -35 -281 -156 -339 -282 -58 -127 -69 -228 -40
-348 50 -200 208 -353 403 -392 79 -15 225 -7 277 15 101 44 134 65 195 126
262 258 188 684 -146 846 -78 37 -84 38 -200 41 -66 1 -133 -1 -150 -6z m159
-157 c10 -4 16 -18 16 -35 0 -19 6 -32 18 -35 42 -14 112 -48 112 -56 0 -15
-30 -68 -39 -68 -4 0 -22 7 -40 16 -44 22 -53 10 -49 -71 l3 -69 45 -26 c81
-47 110 -122 75 -190 -14 -27 -52 -60 -100 -86 -13 -7 -21 -24 -23 -48 -3 -37
-3 -37 -45 -34 -24 2 -43 8 -43 16 -1 6 -2 21 -3 32 0 11 -7 20 -15 20 -19 0
-104 38 -111 50 -4 6 3 26 15 46 21 32 24 34 44 21 11 -8 31 -16 44 -19 19 -5
22 -2 23 25 4 102 1 121 -16 132 -86 50 -125 97 -125 149 0 47 46 111 94 132
53 23 50 20 51 57 1 24 6 33 25 38 14 4 26 7 27 8 1 1 8 -2 17 -5z"></path>
<path style="position: relative;" class="node" id="node5" d="M1901 1428 c-6 -15 -4 -33 6 -51 18 -36 25 -29 29 28 3 35 0 45 -12
45 -8 0 -18 -10 -23 -22z"></path>
<path style="position: relative;" class="node" id="node6" d="M2027 1194 c-10 -11 -9 -72 2 -79 10 -5 31 24 31 42 0 16 -25 44 -33
37z"></path>
</g>
<g transform="translate(0.000000,300.000000) scale(0.100000,-0.100000)" fill="#CDF0D5" stroke="none">

<path style="position: relative;" class="node" id="node8" d="M1850 1884 c-193 -38 -389 -211 -451 -401 -82 -248 -20 -482 177
-662 178 -163 473 -197 689 -79 103 56 203 158 255 262 91 182 91 367 1 551
-68 137 -199 254 -344 305 -48 17 -89 23 -182 25 -66 2 -131 1 -145 -1z m345
-128 c334 -162 408 -588 146 -846 -61 -61 -94 -82 -195 -126 -52 -22 -198 -30
-277 -15 -195 39 -353 192 -403 392 -29 120 -18 221 40 348 44 96 142 195 240
242 96 45 113 48 249 46 116 -3 122 -4 200 -41z"></path>
<path style="position: relative;" class="node" id="node9" d="M1960 1631 c-19 -5 -24 -14 -25 -38 -1 -37 2 -34 -51 -57 -48 -21
-94 -85 -94 -132 0 -52 39 -99 125 -149 17 -11 20 -30 16 -132 -1 -27 -4 -30
-23 -25 -13 3 -33 11 -44 19 -20 13 -23 11 -44 -21 -12 -20 -19 -40 -15 -46 7
-12 92 -50 111 -50 8 0 15 -9 15 -20 1 -11 2 -26 3 -32 0 -8 19 -14 43 -16 42
-3 42 -3 45 34 2 24 10 41 23 48 48 26 86 59 100 86 35 68 6 143 -75 190 l-45
26 -3 69 c-4 81 5 93 49 71 18 -9 36 -16 40 -16 9 0 39 53 39 68 0 8 -70 42
-112 56 -12 3 -18 16 -18 35 0 17 -6 31 -16 35 -9 3 -16 6 -17 5 -1 -1 -13 -4
-27 -8z m-24 -226 c-4 -57 -11 -64 -29 -28 -17 32 -7 73 17 73 12 0 15 -10 12
-45z m124 -248 c0 -18 -21 -47 -31 -42 -11 7 -12 68 -2 79 8 7 33 -21 33 -37z"></path>
</g>
</svg>