<?xml version="1.0" encoding="UTF-8" standalone="no"?>
<!-- Created with Inkscape (http://www.inkscape.org/) -->

<svg
   xmlns:dc="http://purl.org/dc/elements/1.1/"
   xmlns:cc="http://creativecommons.org/ns#"
   xmlns:rdf="http://www.w3.org/1999/02/22-rdf-syntax-ns#"
   xmlns:svg="http://www.w3.org/2000/svg"
   xmlns="http://www.w3.org/2000/svg"
   version="1.1"
   width="428.52933"
   height="213.49594"
   id="svg2">
  <defs
     id="defs4">
    <style
       type="text/css"
       id="style2989" />
  </defs>
  <metadata
     id="metadata7">
    <rdf:RDF>
      <cc:Work
         rdf:about="">
        <dc:format>image/svg+xml</dc:format>
        <dc:type
           rdf:resource="http://purl.org/dc/dcmitype/StillImage" />
        <dc:title></dc:title>
      </cc:Work>
    </rdf:RDF>
  </metadata>
  <g
     transform="translate(-165.73481,-342.75654)"
     id="layer1">
    <g
       transform="translate(-1.4285715e-6,-34.285717)"
       id="layer1-0">
      <g
         transform="matrix(3.543307,0,0,3.543307,14.240009,27.324584)"
         id="g3001"
         style="fill-rule:evenodd">
        <g
           id="Camada_x0020_1">
          <metadata
             id="CorelCorpID_0Corel-Layer" />
          <g
             id="_202171720">
            <polygon
               points="169.548,62.5028 169.548,195.147 36.9032,195.147 36.9032,62.5028 "
               id="_202170040"
               style="fill:#fefefe" />
            <path
               d="m 46.3487,108.797 0,-9.913 3.7175,0 c 0.7434,0 1.3629,0.0928 1.7968,0.2787 0.4646,0.2169 0.8362,0.5267 1.0841,0.9295 0.2788,0.4336 0.4028,0.8673 0.4028,1.3011 0,0.4336 -0.124,0.8362 -0.3407,1.208 -0.248,0.3718 -0.5887,0.6816 -1.0534,0.8985 0.5885,0.1859 1.0534,0.4957 1.3941,0.8983 0.3098,0.4338 0.4647,0.9295 0.4647,1.518 0,0.4646 -0.0931,0.8984 -0.279,1.3011 -0.2167,0.3718 -0.4336,0.6815 -0.7433,0.8984 -0.2788,0.2167 -0.6506,0.4026 -1.0842,0.4957 -0.4338,0.1239 -0.9605,0.1857 -1.5801,0.1857 l -3.7793,0 z m 1.301,-5.7619 2.1376,0 c 0.5887,0 0.9913,-0.031 1.27,-0.124 0.31,-0.0929 0.5577,-0.2477 0.7436,-0.4957 0.1549,-0.2167 0.2478,-0.4956 0.2478,-0.8672 0,-0.3098 -0.0929,-0.6198 -0.2478,-0.8675 -0.1549,-0.2479 -0.3718,-0.4028 -0.6505,-0.4957 -0.3098,-0.0928 -0.8054,-0.1548 -1.518,-0.1548 l -1.9827,0 0,3.0049 z m 0,4.5849 2.4783,0 c 0.4029,0 0.7126,-0.031 0.8675,-0.0621 0.3098,-0.062 0.5575,-0.1238 0.7744,-0.2787 0.1859,-0.1241 0.3718,-0.3098 0.4957,-0.5267 0.1238,-0.2479 0.1859,-0.5267 0.1859,-0.8364 0,-0.3718 -0.0929,-0.7126 -0.2788,-0.9603 -0.1859,-0.2788 -0.4338,-0.4647 -0.7746,-0.5887 -0.3408,-0.0929 -0.8364,-0.1549 -1.4559,-0.1549 l -2.2925,0 0,3.4078 z m 23.42,1.177 3.8104,-9.913 1.425,0 4.0271,9.913 -1.487,0 -1.1462,-3.0048 -4.151,0 -1.0844,3.0048 -1.3939,0 z m 2.8499,-4.0892 3.3768,0 -1.0534,-2.757 c -0.3097,-0.8054 -0.5267,-1.518 -0.6815,-2.0445 -0.1239,0.6505 -0.3098,1.2701 -0.5575,1.8896 l -1.0844,2.9119 z m 24.0085,4.0892 0,-9.913 1.3321,0 5.2043,7.7757 0,-7.7757 1.2703,0 0,9.913 -1.3631,0 -5.2044,-7.8065 0,7.8065 -1.2392,0 z m 33.6119,-3.5005 1.3011,0.3408 c -0.279,1.0842 -0.7744,1.8896 -1.487,2.4783 -0.7126,0.5575 -1.58,0.8365 -2.6022,0.8365 -1.0844,0 -1.9516,-0.2169 -2.6332,-0.6506 -0.6505,-0.4338 -1.1772,-1.0533 -1.518,-1.8898 -0.3408,-0.8364 -0.5267,-1.7039 -0.5267,-2.6642 0,-1.0223 0.217,-1.9206 0.5888,-2.695 0.4026,-0.7746 0.9603,-1.3631 1.7037,-1.7659 0.7125,-0.4026 1.518,-0.5885 2.3854,-0.5885 0.9913,0 1.8278,0.2477 2.5091,0.7744 0.6816,0.4956 1.1462,1.2082 1.4252,2.1065 l -1.3011,0.3099 c -0.2479,-0.7125 -0.5577,-1.2392 -0.9913,-1.58 -0.4339,-0.3097 -0.9913,-0.4956 -1.6729,-0.4956 -0.7436,0 -1.3941,0.1859 -1.8898,0.5576 -0.5265,0.3718 -0.8673,0.8675 -1.0842,1.456 -0.2169,0.6195 -0.3097,1.2701 -0.3097,1.9206 0,0.8365 0.1238,1.5801 0.3718,2.1996 0.2477,0.6195 0.6195,1.1152 1.1462,1.4249 0.5264,0.3098 1.0841,0.4647 1.6726,0.4647 0.7436,0 1.3632,-0.2167 1.8588,-0.6506 0.5267,-0.4026 0.8675,-1.0531 1.0534,-1.8896 z m 19.0518,-1.3321 c 0,-1.6418 0.4337,-2.9429 1.3321,-3.8722 0.8673,-0.9295 2.0135,-1.3941 3.4076,-1.3941 0.9295,0 1.7347,0.2169 2.4783,0.6505 0.7434,0.4336 1.3011,1.0534 1.6729,1.8278 0.4026,0.7744 0.5885,1.6729 0.5885,2.6642 0,0.9913 -0.1859,1.8896 -0.6195,2.695 -0.4028,0.8054 -0.9603,1.3941 -1.7039,1.7967 -0.7434,0.4029 -1.5488,0.6198 -2.4163,0.6198 -0.9291,0 -1.7657,-0.2169 -2.5093,-0.6816 -0.7124,-0.4338 -1.2701,-1.0533 -1.6729,-1.8278 -0.3716,-0.8054 -0.5575,-1.6108 -0.5575,-2.4783 z m 1.3629,0 c 0,1.2083 0.31,2.1376 0.9605,2.8191 0.6506,0.7124 1.456,1.0532 2.4163,1.0532 0.9913,0 1.7968,-0.3408 2.4163,-1.0532 0.6505,-0.6815 0.9603,-1.6729 0.9603,-2.9429 0,-0.8055 -0.1239,-1.518 -0.4026,-2.1065 -0.2788,-0.6198 -0.6816,-1.0844 -1.1772,-1.4252 -0.5267,-0.3097 -1.1152,-0.4956 -1.7968,-0.4956 -0.9291,0 -1.7039,0.3407 -2.3854,0.9603 -0.6814,0.6505 -0.9914,1.7039 -0.9914,3.1908 z m -88.5368,37.2053 0.1859,0.031 0.1548,0.093 0.1549,0.0619 0.1239,0.093 0.1551,0.1239 0.1238,0.1238 0.1239,0.1239 0.0928,0.1549 0.0931,0.1549 0.062,0.155 0.0619,0.1549 0.031,0.1857 0.031,0.1859 0.031,0.1859 -0.031,0.1859 -0.031,0.1859 -0.031,0.1549 -0.0619,0.1859 -0.062,0.1549 -0.0931,0.1549 -0.0928,0.1238 -0.1239,0.1549 -0.1238,0.1241 -0.1551,0.0928 -0.1239,0.1239 -0.1549,0.062 -0.1548,0.0929 -0.1859,0.031 -0.1859,0.062 -0.2168,0.0308 -3.1598,0 0,-3.8412 3.1598,0 0.2168,0.031 0.1859,0.0619 z m 0,-14.8076 0.1859,0.0618 0.1548,0.062 0.1549,0.0929 0.1239,0.093 0.1551,0.1239 0.1238,0.1238 0.1239,0.1239 0.0928,0.1549 0.0931,0.1549 0.062,0.1551 0.0619,0.1548 0.031,0.1857 0.031,0.1859 0.031,0.1859 -0.031,0.1859 -0.031,0.1859 -0.031,0.1549 -0.0619,0.1859 -0.062,0.1549 -0.0931,0.1549 -0.0928,0.1238 -0.1239,0.1549 -0.1238,0.1241 -0.1551,0.0928 -0.1239,0.0929 -0.1549,0.093 -0.1548,0.0619 -0.1859,0.062 -0.1859,0.031 -0.2168,0.031 -3.1598,0 0,-3.8104 3.1598,0 0.2168,0.031 0.1859,0.0311 z m -0.4027,16.3256 0,0 0.0311,0.031 0.0308,0 0.031,0.031 0.031,0 0,0.031 0.031,0.0308 0.031,0.031 0.0309,0.0311 0,0.031 0,0.031 0,0.0308 0,0.031 0,0.031 0,0.0311 0,0.031 0,0.0308 -0.0309,0 0,0.031 -0.031,0.031 -0.031,0.031 0,0.0311 -0.031,0 -0.031,0.0308 -0.0308,0 -0.0311,0.031 -0.031,0 -0.093,0 -1.456,0 0,-0.6195 1.487,0 0.062,0 0.031,0 z m 0,-14.7768 0,0 0.0311,0 0.0308,0.031 0.031,0 0.031,0.031 0,0.031 0.031,0.0308 0.031,0 0,0.0311 0.0309,0.031 0,0.031 0,0.031 0,0.0308 0,0.031 0,0.031 0,0.0311 0,0.031 -0.0309,0.0308 0,0.031 -0.031,0.031 0,0.031 -0.031,0 -0.031,0.0311 -0.031,0.0308 -0.0308,0 -0.0311,0 0,0.031 -0.031,0 -0.093,0 -1.456,0 0,-0.6505 1.487,0 0.062,0.031 0.031,0 z m -4.7707,11.5861 4.6777,0 0.2479,0 c 1.8278,0.1549 3.2527,1.6727 3.2527,3.5004 0,1.8278 -1.4249,3.3458 -3.2527,3.4697 l 0,0.031 -4.9256,0 0,-7.0011 z m 0,-14.7768 4.6777,0 0.2479,0 c 1.8278,0.1549 3.2527,1.6419 3.2527,3.5004 0,1.8278 -1.4249,3.3458 -3.2527,3.4697 l 0,0.031 -4.9256,0 0,-7.0011 z m 90.9842,6.1646 -0.0928,0 -0.1859,-0.062 -0.1859,-0.0308 -0.1859,-0.062 -0.1859,-0.0311 -0.1859,-0.062 -0.1859,-0.0618 -0.0308,0 -0.0931,-0.031 -0.2477,-0.0929 -0.1241,-0.031 -0.1239,-0.031 -0.1238,-0.031 -0.1549,-0.0311 -0.1239,-0.0308 -0.124,-0.031 -0.1239,-0.031 -0.1239,0 -0.1548,-0.031 -0.1239,0 -0.1241,-0.031 -0.1549,0 -0.1238,0 -0.1549,-0.0311 -0.0929,0 -0.3718,0.0311 -0.3097,0 -0.3408,0.062 -0.3098,0.031 -0.2789,0.0618 -0.3098,0.0931 -0.2787,0.0618 -0.2788,0.1241 -0.2479,0.0928 -0.2477,0.1239 -0.248,0.1241 -0.2477,0.1549 -0.2169,0.1548 -0.2169,0.1549 -0.2167,0.1859 -0.2169,0.1857 -0.1859,0.1859 -0.1859,0.1859 -0.1549,0.2169 -0.1859,0.2478 -0.1549,0.2169 -0.1549,0.2479 -0.1238,0.2787 -0.1239,0.2478 -0.1241,0.2789 -0.0928,0.3098 -0.0929,0.2787 -0.093,0.3098 -0.0619,0.3408 -0.062,0.3408 -0.062,0.3407 0,0.3408 -0.031,0.3718 0,0.3098 0.031,0.3408 0.031,0.3097 0.062,0.3098 0.0619,0.2787 0.093,0.2788 0.0929,0.2789 0.0932,0.2788 0.1237,0.2479 0.124,0.2477 0.1547,0.248 0.1549,0.2477 0.1859,0.2169 0.1549,0.2167 0.1859,0.1859 0.2169,0.1859 0.1859,0.1859 0.2167,0.1549 0.2479,0.1549 0.2168,0.1549 0.2479,0.1238 0.2477,0.0931 0.279,0.1238 0.2787,0.0931 0.2788,0.0618 0.2789,0.0621 0.2477,0.031 -0.3718,-0.31 -0.3407,-0.3716 -0.2788,-0.4028 -0.2787,-0.4336 -0.217,-0.4647 -0.1859,-0.4646 -0.1238,-0.4957 -0.062,-0.5267 -0.0309,-0.4338 0,-2.0445 0.0309,-0.4646 0.062,-0.4957 0.1238,-0.4956 0.1859,-0.4957 0.217,-0.4646 0.2787,-0.4029 0.2788,-0.4028 0.3407,-0.3716 0.3718,-0.3407 0.4028,-0.279 0.4027,-0.2787 0.4646,-0.2168 0.4957,-0.1858 0.4956,-0.1241 0.4957,-0.0618 0.4648,-0.0311 2.0445,0 z m -3.5625,-14.6839 c 2.4783,0 4.8636,0.4338 7.0632,1.2082 l -0.0311,0.031 c 2.0137,0.7745 3.4387,2.7261 3.4387,5.0185 0,2.974 -2.4473,5.3902 -5.4213,5.3902 -0.6816,0 -1.3321,-0.1238 -1.9206,-0.3716 l 0,0.0311 c -0.9913,-0.3408 -2.0447,-0.5267 -3.1289,-0.5267 -5.1425,0 -9.0457,3.6553 -9.3555,9.0147 -0.3098,5.3282 3.7794,9.6343 9.3245,9.1387 1.3011,-0.0311 2.4473,-0.3098 3.4696,-0.7745 l 0,-4.3989 -1.8587,0 c -1.0842,0 -2.0137,-0.8984 -2.0137,-2.0136 l 0,-1.8898 c 0,-1.0842 0.9295,-2.0135 2.0137,-2.0135 2.5403,0 5.0494,0 7.5587,0 l 0.7745,0 c 0.3099,0 0.5887,0 0.8674,0 2.2614,0 4.0892,1.8278 4.0892,4.0892 l 0,10.7494 c 0,3.6245 -3.0979,5.5143 -6.3506,6.2887 -3.2837,0.7745 -7.0321,0.5886 -8.5191,0.5886 -11.3071,0 -20.5388,-8.8907 -20.5388,-19.7643 0,-10.9045 9.2317,-19.7954 20.5388,-19.7954 z m -18.2464,33.6738 c 0,3.067 -2.5403,5.6071 -5.6382,5.6071 -2.757,0 -5.0804,-2.0445 -5.5141,-4.6777 l 0,0 -3.2219,-12.4843 -3.3147,11.6479 c -0.2478,0.8983 -0.4647,1.5488 -0.9293,2.3542 -1.0842,1.8588 -3.3458,3.1599 -5.9169,3.1599 -2.6332,0 -4.9256,-1.3631 -6.0098,-3.3147 -0.4028,-0.7434 -0.5887,-1.487 -0.8054,-2.3235 l -3.2219,-11.2451 -3.1289,12.5772 -0.031,0 c -0.5885,2.4783 -2.8189,4.3061 -5.4521,4.3061 -3.067,0 -5.6071,-2.5401 -5.6071,-5.6071 0,-0.5265 0.0618,-0.9293 0.1859,-1.425 l 5.7,-26.4247 0.031,0 c 0.2787,-3.005 3.5004,-5.3593 7.4039,-5.3593 3.3146,0 6.1647,1.7037 7.0939,4.0272 0.248,0.5885 0.3718,1.27 0.5577,1.8587 l 3.2838,11.586 3.2217,-11.2762 c 0.2169,-0.7126 0.4028,-1.456 0.6815,-2.1685 0.9295,-2.3235 3.7486,-4.0272 7.0632,-4.0272 3.0049,0 5.6071,1.394 6.7843,3.3766 0.1549,0.2788 0.2788,0.5577 0.3718,0.8365 0.2788,0.7744 0.4337,1.6108 0.6196,2.4162 l 5.3902,23.9775 c 0.1859,0.9603 0.4028,1.6729 0.4028,2.6022 z M 68.4365,116.2939 c -0.093,0 -0.1859,0 -0.2479,0 l -19.4237,0 c -1.5488,0 -2.8189,1.2701 -2.8189,2.8191 l 0,33.4259 c 0,1.549 1.2701,2.819 2.8189,2.819 l 19.4237,0 c 0.4028,0 0.8364,0 1.2392,0 5.3282,0 9.6653,-4.7397 9.6653,-10.5327 0,-4.3989 -2.4783,-8.1783 -5.9789,-9.7584 2.0757,-1.8896 3.4078,-4.9564 3.4078,-8.426 0,-5.7 -3.6245,-10.3469 -8.0855,-10.3469 z m 49.9065,41.6352 -0.3408,-0.1549 -0.3407,-0.1549 -0.3408,-0.1859 -0.3098,-0.2167 -0.3097,-0.2169 -0.3098,-0.2169 -0.3098,-0.2477 -0.2789,-0.248 -0.2477,-0.2477 -0.2788,-0.2789 -0.2479,-0.2788 -0.2167,-0.3098 -0.217,-0.3097 -0.2169,-0.3098 -0.2169,-0.3408 -0.1549,-0.3097 -0.1857,-0.3718 -0.155,-0.3408 -0.1239,-0.3718 -0.1239,-0.3408 -0.1238,-0.4026 -0.0931,-0.3718 0,-0.0618 -0.3098,-1.1772 -0.1238,0.4026 -0.031,0.1549 -0.0619,0.1859 -0.031,0.1548 -0.062,0.1859 -0.062,0.1859 -0.0619,0.1859 -0.062,0.1859 -0.0619,0.1859 -0.093,0.2167 -0.0618,0.1859 -0.0931,0.1859 -0.0928,0.2169 -0.0931,0.2168 -0.1238,0.1859 -0.1239,0.2169 -0.1241,0.2169 -0.1549,0.2787 -0.1857,0.2478 -0.1548,0.2789 -0.2169,0.2477 -0.1859,0.217 -0.217,0.2477 -0.2167,0.2169 -0.2169,0.2477 -0.2479,0.217 -0.2478,0.1859 -0.2479,0.1858 -0.2477,0.217 -0.2479,0.1548 -0.2788,0.1859 -0.2477,0.1549 -0.279,0.1549 -0.3097,0.1549 -0.2788,0.1549 -0.2787,0.1238 -0.3098,0.1239 -0.2789,0.093 -0.3098,0.1239 -0.3098,0.0929 -0.3407,0.093 -0.3098,0.0618 -0.3098,0.0621 -0.3407,0.062 -0.3098,0.0308 -0.3408,0.0621 -0.3408,0 -0.3408,0.031 -0.3407,0 -0.3408,0 -0.3408,-0.031 -0.3408,0 -0.3407,-0.0621 -0.3408,-0.0308 -0.3406,-0.062 -0.31,-0.0621 -0.3407,-0.0928 -0.3098,-0.0929 -0.3408,-0.093 -0.3098,-0.1239 -0.3097,-0.093 -0.3098,-0.1549 -0.2787,-0.1239 -0.3098,-0.1548 -0.2789,-0.1549 -0.2788,-0.1549 -0.2787,-0.1859 -0.279,-0.1859 -0.2477,-0.1859 -0.2479,-0.1859 -0.2478,-0.2167 -0.2477,-0.2169 -0.2479,-0.2169 -0.2169,-0.2478 -0.2168,-0.2169 -0.2169,-0.2477 -0.1859,-0.279 -0.2169,-0.2477 -0.1549,-0.2787 -0.1859,-0.279 -0.1549,-0.2787 -0.1238,-0.217 -0.1239,-0.2167 -0.0928,-0.2169 -0.0931,-0.2169 -0.062,-0.2167 -0.0929,-0.1859 -0.062,-0.1859 -0.0618,-0.2169 -0.0621,-0.1859 -0.0618,-0.1549 -0.062,-0.1859 -0.031,-0.1549 -0.0621,-0.1857 -0.0308,-0.124 -0.031,-0.1549 -0.3098,1.1772 -0.1859,0.5885 -0.1238,0.3718 -0.1241,0.3098 -0.1549,0.3407 -0.1549,0.3408 -0.1859,0.3098 -0.1857,0.3098 -0.2169,0.2789 -0.2169,0.3098 -0.2169,0.2787 -0.2167,0.2788 -0.2479,0.2479 -0.2788,0.2477 -0.2477,0.2479 -0.279,0.217 -0.2787,0.2167 -0.3098,0.2169 -0.3097,0.1859 -0.3098,0.1859 -0.31,0.1859 -0.3406,0.1549 -0.3099,0.1238 -0.3716,0.1549 -0.3408,0.0929 -0.3408,0.124 -0.3718,0.0929 -0.3718,0.062 -0.3716,0.0618 -0.3718,0.0311 -0.3718,0.031 -0.4026,0 -0.4338,0 -0.4646,-0.031 -0.4337,-0.0621 -0.4338,-0.0928 -0.4336,-0.0929 -0.4028,-0.124 -0.4027,-0.1239 -0.4028,-0.1549 -0.4026,-0.1859 -0.3718,-0.1859 -0.3718,-0.2167 -0.3407,-0.2169 -0.3408,-0.2479 -0.3406,-0.2788 -0.31,-0.2787 -0.3097,-0.2788 -0.2788,-0.3099 -0.2787,-0.2788 -0.279,0.2479 -0.4956,0.3716 -0.5265,0.3718 -0.5267,0.3408 -0.5577,0.3098 -0.5885,0.2787 -0.5887,0.248 -0.5885,0.2477 -0.6195,0.1859 -0.6506,0.1549 -0.6505,0.124 -0.6506,0.0929 -0.6505,0.062 -0.6197,0 -20.8176,0 -0.5267,0 -0.5885,-0.093 -0.5887,-0.1549 -0.5265,-0.2169 -0.5267,-0.2478 -0.4956,-0.3097 -0.4647,-0.3408 -0.4338,-0.3718 -0.3716,-0.4336 -0.3408,-0.4647 -0.3099,-0.4956 -0.2478,-0.5267 -0.2169,-0.5577 -0.1549,-0.5575 -0.0928,-0.6197 -0.031,-0.5265 0,-33.5809 0.031,-0.5267 0.0928,-0.5885 0.1549,-0.5885 0.2169,-0.5577 0.2478,-0.5267 0.3099,-0.4956 0.3408,-0.4337 0.3716,-0.4336 0.4338,-0.4028 0.4647,-0.3408 0.4956,-0.2787 0.5267,-0.279 0.5265,-0.1857 0.5887,-0.1549 0.5885,-0.093 0.5267,-0.031 19.8262,0 0.5577,0.031 0.6196,0.062 0.5887,0.0929 0.5885,0.1238 0.5885,0.1859 0.5577,0.1859 0.5577,0.2479 0.5265,0.2788 0.5266,0.2787 0.4957,0.3408 0.4646,0.3408 0.4649,0.3718 0.4336,0.4026 0.4026,0.4338 0.4028,0.4337 0.3718,0.4336 0.3716,0.4957 0.3408,0.4956 0.31,0.4957 0.2787,0.5267 0.2788,0.5577 0.2479,0.5266 0.2167,0.5885 0.2169,0.5886 0.1859,0.5887 0.1549,0.5885 0.1239,0.6195 0.1238,0.6197 0.0931,0.6506 0.0618,0.6195 0.031,0.6505 0.0311,0.6506 0,0.4336 -0.0311,0.3718 -0.031,0.4028 -0.0308,0.4026 -0.031,0.4028 -0.062,0.3716 -0.0619,0.4029 -0.062,0.3717 -0.0929,0.3716 -0.062,0.3718 -0.1239,0.3718 -0.093,0.3718 -0.1239,0.3408 -0.1238,0.3716 -0.1239,0.3408 -0.1241,0.3408 -0.1549,0.3407 -0.1548,0.3408 -0.1549,0.3408 -0.1859,0.3408 -0.1859,0.3098 0.2789,0.2787 0.3408,0.3408 0.1239,0.1238 2.9739,-13.7544 0.0619,-0.2167 0.062,-0.31 0.1239,-0.4336 0.1238,-0.4647 0.1551,-0.4336 0.1857,-0.4028 0.2169,-0.4028 0.248,-0.4026 0.2477,-0.3718 0.2479,-0.3718 0.2788,-0.3406 0.3097,-0.3408 0.3098,-0.3097 0.3408,-0.31 0.3408,-0.2788 0.3407,-0.2787 0.3718,-0.2479 0.3716,-0.2478 0.4028,-0.2169 0.4027,-0.2169 0.4028,-0.1857 0.4028,-0.1859 0.4336,-0.1549 0.4336,-0.1549 0.4647,-0.124 0.4338,-0.0929 0.4647,-0.1238 0.4646,-0.0621 0.4647,-0.062 0.4646,-0.0618 0.4957,-0.031 0.4648,0 0.4336,0 0.4028,0.031 0.4027,0.031 0.4028,0.0618 0.4026,0.031 0.3718,0.0929 0.4026,0.062 0.3718,0.0931 0.3718,0.1238 0.3718,0.1239 0.3716,0.1239 0.3718,0.124 0.3407,0.1549 0.3408,0.1549 0.3408,0.1859 0.3408,0.1857 0.3098,0.1859 0.3407,0.2169 0.3098,0.2169 0.2787,0.2477 0.3098,0.217 0.279,0.2477 0.2787,0.2789 0.2479,0.2788 0.2478,0.2787 0.2479,0.2788 0.2167,0.3099 0.2169,0.3408 0.2169,0.3098 0.1857,0.3408 0.1549,0.3405 0.1551,0.3408 0.0618,0.2169 0.0621,0.1549 0.0618,0.1859 0.062,0.1549 0.0621,0.1549 0.0308,0.1549 0.031,0.1548 0.062,0.1239 0.031,0.1551 0.0311,0.1239 0.0308,0.1238 0.031,0.1239 0.031,0.093 0,0.0929 0.031,0.093 0.031,0.0929 0.2478,0.8985 0.1859,-0.5888 0.031,-0.1238 0.031,-0.1239 0.0308,-0.124 0.031,-0.1239 0.0621,-0.1549 0.031,-0.1549 0.0308,-0.1238 0.062,-0.1549 0.031,-0.1859 0.0621,-0.1549 0.0308,-0.1549 0.062,-0.1859 0.0621,-0.1549 0.0618,-0.1859 0.062,-0.1859 0.0929,-0.2169 0.1549,-0.3408 0.1548,-0.3405 0.1859,-0.3408 0.217,-0.3098 0.2169,-0.3408 0.2167,-0.3099 0.2479,-0.2788 0.2477,-0.2787 0.248,-0.2788 0.2787,-0.2789 0.2788,-0.2477 0.3097,-0.217 0.279,-0.2477 0.3097,-0.2169 0.3098,-0.2169 0.3408,-0.1859 0.3408,-0.1857 0.3407,-0.1859 0.3408,-0.1549 0.3408,-0.1549 0.3716,-0.124 0.3718,-0.1239 0.3408,-0.1239 0.4028,-0.1238 0.3716,-0.0931 0.4028,-0.062 0.3718,-0.0929 0.4026,-0.031 0.4028,-0.0618 0.4026,-0.031 0.4028,-0.031 0.4027,0 0.3717,0 0.3718,0.031 0.3718,0.031 0.3716,0.0308 0.3408,0.031 0.3718,0.0621 0.3408,0.0618 0.3718,0.093 0.3408,0.0929 0.3405,0.093 0.3408,0.0929 0.31,0.1239 0.3406,0.124 0.3099,0.1239 0.3098,0.1549 0.3098,0.1548 0.3097,0.1549 0.3098,0.1859 0.2787,0.1859 0.279,0.1859 0.2787,0.1859 0.2788,0.2167 0.2789,0.2169 0.2478,0.217 0.2479,0.2167 0.2477,0.2479 0.2169,0.2477 0.2167,0.279 0.217,0.2477 0.2169,0.2788 0.1859,0.3099 0.1857,0.2788 0.093,0.1859 0.0929,0.1548 0.093,0.1549 0.0618,0.1859 0.0931,0.1549 0.0618,0.1859 0.0621,0.1549 0.093,0.1859 0.0618,0.2167 0.0621,0.1859 0.0618,0.2169 0.062,0.1859 0.0621,0.1857 0.0308,0.1859 0.062,0.1859 0.031,0.1859 0.0311,0.1859 0.0618,0.1549 0.031,0.1549 0.031,0.1548 0.031,0.1549 0.0619,0.3098 0.031,0.1241 0.4338,1.9516 0.2788,-0.4649 0.6195,-0.9603 0.6815,-0.8982 0.6816,-0.8675 0.7434,-0.8054 0.8054,-0.8054 0.8055,-0.7436 0.8674,-0.7434 0.8985,-0.6506 0.9293,-0.6505 0.9603,-0.5887 0.9913,-0.5575 1.0223,-0.4957 1.0534,-0.4646 1.0531,-0.4028 1.1152,-0.3718 1.1154,-0.3098 1.1462,-0.2477 1.1462,-0.1859 1.1771,-0.1549 1.2082,-0.0931 1.1772,-0.0308 0.3098,0 0.2479,0 0.2788,0.0308 0.2477,0 0.2789,0 0.2478,0.0311 0.2787,0 0.2479,0.031 0.2788,0.031 0.2479,0.031 0.2477,0.031 0.279,0.0308 0.2477,0.0311 0.2478,0.031 0.2479,0.031 0.2787,0.0618 0.248,0.031 0.2477,0.0621 0.2479,0.031 0.2478,0.0618 0.2479,0.0621 0.2477,0.0618 0.2479,0.062 0.2478,0.0621 0.2479,0.0618 0.2477,0.062 0.248,0.062 0.2477,0.0929 0.2479,0.062 0.2167,0.0929 0.248,0.062 0.4026,0.1549 0.5577,0.2477 0.2479,0.1549 0.2788,0.1549 0.2787,0.1549 0.2479,0.1549 0.2788,0.1859 0.2477,0.2169 0.2479,0.1859 0.217,0.2169 0.2167,0.2167 0.2169,0.2169 0.2169,0.2477 0.2167,0.217 0.1859,0.2479 0.1859,0.2787 0.1859,0.2478 0.1549,0.2789 0.1549,0.2788 0.1549,0.2787 0.1238,0.2789 0.1241,0.2788 0.1239,0.3098 0.0928,0.3097 0.0931,0.3098 0.0928,0.3098 0.062,0.3097 0.0619,0.3408 0.031,0.31 0.031,0.3405 0.031,0.3408 0,0.3408 0,0.4338 -0.031,0.4337 -0.062,0.4336 -0.0929,0.4028 -0.093,0.4336 -0.0929,0.4028 -0.1549,0.4026 -0.1548,0.3718 -0.1549,0.4029 -0.2169,0.3716 -0.1859,0.3407 -0.2168,0.3408 -0.2479,0.3408 -0.2477,0.3408 -0.279,0.3097 -0.2787,0.2788 -0.3098,0.2789 -0.3097,0.2788 -0.3098,0.2479 -0.3406,0.2477 -0.341,0.2169 -0.3718,0.2168 -0.3717,0.1859 -0.3716,0.1548 -0.4029,0.1549 -0.3718,0.1549 -0.4336,0.1241 -0.4028,0.0928 -0.2477,0.031 3.3766,0 0.9294,0 0.3098,0 0.3718,0.0311 0.3716,0.0618 0.3408,0.062 0.3718,0.0621 0.3408,0.1238 0.3407,0.0929 0.3098,0.1548 0.3408,0.1241 0.3097,0.1549 0.3098,0.1859 0.2788,0.1857 0.2789,0.2169 0.2787,0.2169 0.248,0.2167 0.2787,0.248 0.2169,0.2477 0.2478,0.2479 0.2169,0.2788 0.1859,0.2789 0.1857,0.2788 0.1859,0.3097 0.1549,0.3098 0.1548,0.3408 0.1241,0.3097 0.1239,0.3408 0.0928,0.3408 0.0621,0.3718 0.062,0.3408 0.0618,0.3716 0.031,0.3718 0,0.3097 0,10.8425 0,0.4647 -0.062,0.4957 -0.0618,0.4956 -0.0931,0.4957 -0.1238,0.4646 -0.1549,0.4649 -0.1549,0.4336 -0.1859,0.4336 -0.2169,0.4338 -0.2478,0.3716 -0.2479,0.4029 -0.2787,0.3407 -0.2788,0.3408 -0.3097,0.3408 -0.3098,0.3098 -0.31,0.2787 -0.3097,0.2788 -0.3408,0.2479 -0.3406,0.2477 -0.3408,0.2169 -0.3718,0.2169 -0.3407,0.2168 -0.3718,0.1859 -0.3718,0.1548 -0.3406,0.1859 -0.3718,0.1239 -0.3718,0.1551 -0.3718,0.1238 -0.3716,0.1239 -0.3718,0.1239 -0.3718,0.093 -0.3718,0.0929 -0.3716,0.062 -0.3718,0.0929 -0.3718,0.062 -0.3408,0.0618 -0.3717,0.0621 -0.3716,0.062 -0.3408,0.031 -0.3718,0.0308 -0.3408,0.0621 -0.3408,0.031 -0.3408,0 -0.3407,0.031 -0.3408,0.0308 -0.3406,0 -0.31,0.031 -0.3097,0 -0.3098,0.031 -0.3098,0 -0.2787,0 -0.2789,0 -0.2788,0 -0.2787,0 -0.248,0 -0.2477,0 -0.2169,0 -0.2167,0 -0.2169,0 -0.1859,0 -0.1859,-0.031 -0.1549,0 -0.1549,0 -0.1549,0 -1.1772,-0.031 -1.2082,-0.0618 -1.1771,-0.1549 -1.1462,-0.2169 -1.1462,-0.2478 -1.1154,-0.3099 -1.1152,-0.3408 -1.0531,-0.4336 -1.0534,-0.4337 -1.0223,-0.5266 -0.9913,-0.5267 -0.9603,-0.6195 -0.9293,-0.6196 -0.8985,-0.6815 -0.6816,-0.5887 -0.0618,0.155 -0.1859,0.4027 -0.1859,0.3718 -0.2169,0.3718 -0.2477,0.3405 -0.248,0.3408 -0.2477,0.3408 -0.2787,0.3098 -0.279,0.3099 -0.3097,0.2788 -0.3098,0.2787 -0.3408,0.2788 -0.3408,0.2479 -0.3718,0.2169 -0.3407,0.2167 -0.4027,0.1859 -0.3718,0.1859 -0.4026,0.1549 -0.4028,0.1239 -0.4336,0.124 -0.4028,0.0929 -0.4336,0.0928 -0.4647,0.0621 -0.4338,0.031 -0.4337,0 -0.4336,0 -0.3718,-0.031 -0.4028,-0.0311 -0.4026,-0.0618 -0.3718,-0.093 -0.4028,-0.0929 -0.3716,-0.1239 -0.3408,-0.124 -0.3718,-0.1549 z m 6.9703,-30.266 -0.4028,0.9603 -0.2788,0.8055 -1.4559,-6.4746 -0.031,-0.1549 -0.0621,-0.3098 -0.031,-0.1549 -0.0308,-0.1549 -0.031,-0.1548 -0.0621,-0.1549 -0.031,-0.1549 -0.031,-0.1859 -0.0308,-0.1549 -0.062,-0.1549 -0.0311,-0.1859 -0.0618,-0.1859 -0.062,-0.1548 -0.0621,-0.1859 -0.0618,-0.1549 -0.031,-0.1549 -0.062,-0.1549 -0.0619,-0.1238 -0.062,-0.1239 -0.062,-0.1551 -0.0619,-0.1239 -0.093,-0.1548 -0.0619,-0.1239 -0.1548,-0.2479 -0.1549,-0.2168 -0.1549,-0.2479 -0.1859,-0.2167 -0.1859,-0.2169 -0.1859,-0.1859 -0.2169,-0.2169 -0.1859,-0.1859 -0.2167,-0.1857 -0.2479,-0.1859 -0.2168,-0.1859 -0.2479,-0.1549 -0.2169,-0.1549 -0.2477,-0.1549 -0.2788,-0.1548 -0.2479,-0.1241 -0.2788,-0.1549 -0.2479,-0.1239 -0.2787,-0.0928 -0.2788,-0.1241 -0.3098,-0.0928 -0.2789,-0.0929 -0.3098,-0.093 -0.2787,-0.062 -0.3098,-0.0619 -0.3097,-0.062 -0.3098,-0.0618 -0.31,-0.0311 -0.3097,-0.031 -0.3408,-0.031 -0.3098,0 -0.3407,-0.031 -0.3408,0.031 -0.3716,0 -0.3408,0.031 -0.3718,0.031 -0.3408,0.0619 -0.3408,0.062 -0.3407,0.062 -0.3098,0.0929 -0.3408,0.093 -0.3097,0.0929 -0.3098,0.1239 -0.3098,0.1238 -0.3097,0.1241 -0.3098,0.1238 -0.2789,0.1549 -0.2788,0.1549 -0.2787,0.1859 -0.279,0.1549 -0.2477,0.1859 -0.2788,0.2169 -0.2479,0.1857 -0.2169,0.2169 -0.2167,0.2169 -0.2169,0.2167 -0.217,0.248 -0.2167,0.2477 -0.1859,0.2479 -0.1548,0.2478 -0.1549,0.2789 -0.1549,0.2788 -0.1549,0.2787 -0.1241,0.279 -0.0618,0.1548 -0.062,0.1549 -0.0619,0.1549 -0.031,0.1549 -0.062,0.1549 -0.031,0.1548 -0.0619,0.1549 -0.031,0.1549 -0.062,0.1239 -0.031,0.1549 -0.0308,0.1548 -0.0311,0.1241 -0.062,0.1549 -0.031,0.1238 -0.0308,0.1239 -0.031,0.1239 -1.7039,5.9169 -1.7658,-6.2267 -0.031,-0.0928 -0.031,-0.1239 -0.031,-0.093 -0.0308,-0.1239 -0.031,-0.0929 -0.0311,-0.124 -0.031,-0.1239 -0.031,-0.1239 -0.0308,-0.1548 -0.031,-0.1239 -0.031,-0.1241 -0.0621,-0.1549 -0.031,-0.1238 -0.0618,-0.1549 -0.0621,-0.1239 -0.031,-0.1548 -0.1238,-0.279 -0.1549,-0.2787 -0.1549,-0.2788 -0.1549,-0.2789 -0.1859,-0.2478 -0.1859,-0.2479 -0.1859,-0.2477 -0.2167,-0.248 -0.2169,-0.2167 -0.2169,-0.2169 -0.2478,-0.2169 -0.2479,-0.1857 -0.2477,-0.2169 -0.2479,-0.1859 -0.2788,-0.1549 -0.2787,-0.1859 -0.279,-0.1549 -0.2787,-0.1549 -0.3098,-0.1238 -0.3098,-0.1241 -0.3097,-0.1238 -0.3098,-0.1239 -0.3097,-0.0929 -0.3408,-0.093 -0.3408,-0.0929 -0.3408,-0.062 -0.3408,-0.062 -0.3407,-0.0619 -0.3408,-0.031 -0.3408,-0.031 -0.3718,0 -0.3716,-0.031 -0.4028,0.031 -0.4336,0 -0.4029,0.062 -0.4336,0.0311 -0.4028,0.0928 -0.3716,0.062 -0.4028,0.1239 -0.3718,0.0929 -0.4026,0.124 -0.3408,0.1549 -0.3718,0.1549 -0.3408,0.1549 -0.3407,0.1859 -0.3408,0.1859 -0.3098,0.2167 -0.3098,0.2169 -0.3097,0.2169 -0.2788,0.2477 -0.2789,0.248 -0.2788,0.2477 -0.2477,0.2787 -0.2169,0.3098 -0.2169,0.2789 -0.2169,0.3098 -0.1857,0.3098 -0.1549,0.3408 -0.1551,0.3407 -0.1549,0.3408 -0.0928,0.3716 -0.0929,0.3408 -0.062,0.2789 -0.062,0.2788 -3.7174,17.1931 -0.062,-0.0929 -0.1859,-0.3718 -0.2478,-0.3718 -0.2169,-0.3408 -0.2477,-0.3716 -0.2479,-0.3407 -0.2788,-0.3098 -0.2787,-0.3408 -0.279,-0.3098 -0.3097,-0.2789 -0.3098,-0.2787 -0.3408,-0.2788 -0.3097,-0.2789 -0.3408,-0.2478 0.031,-0.062 0.1859,-0.2477 0.1859,-0.2788 0.1859,-0.2789 0.1549,-0.2788 0.1548,-0.2787 0.1549,-0.279 0.1549,-0.3097 0.1239,-0.2788 0.1238,-0.3097 0.1241,-0.3098 0.1239,-0.3098 0.1238,-0.3407 0.0929,-0.3098 0.093,-0.3408 0.0929,-0.31 0.062,-0.3405 0.0929,-0.3408 0.062,-0.3408 0.062,-0.3408 0.0309,-0.3718 0.031,-0.3407 0.031,-0.3408 0.031,-0.3718 0,-0.3716 0.031,-0.3718 -0.031,-0.5885 -0.031,-0.5887 -0.062,-0.5575 -0.0619,-0.5887 -0.1238,-0.5575 -0.1241,-0.5577 -0.1239,-0.5267 -0.1859,-0.5267 -0.1859,-0.5265 -0.1859,-0.4956 -0.2167,-0.4957 -0.2479,-0.4956 -0.2788,-0.4649 -0.2477,-0.4336 -0.31,-0.4647 -0.3097,-0.4028 -0.3408,-0.4026 -0.3408,-0.3718 -0.3406,-0.3718 -0.4028,-0.3408 -0.3718,-0.3097 -0.4026,-0.3098 -0.4338,-0.2787 -0.4336,-0.248 -0.4647,-0.2167 -0.4646,-0.2169 -0.4649,-0.1859 -0.4956,-0.1239 -0.4957,-0.1238 -0.4957,-0.0931 -0.4954,-0.031 -0.4957,-0.0308 -19.7334,0 -0.4028,0.0308 -0.4646,0.062 -0.4029,0.1239 -0.4026,0.1549 -0.4028,0.1859 -0.3716,0.2169 -0.3408,0.2477 -0.3099,0.279 -0.2788,0.3097 -0.2477,0.3408 -0.2169,0.3716 -0.1859,0.3718 -0.1549,0.4028 -0.1239,0.4337 -0.062,0.4336 0,0.4338 0,33.4879 0,0.4026 0.062,0.4338 0.1239,0.4336 0.1549,0.4029 0.1859,0.4026 0.2169,0.3407 0.2477,0.3408 0.2788,0.3098 0.3099,0.3098 0.3408,0.2479 0.3716,0.2167 0.4028,0.1859 0.4026,0.1549 0.4029,0.093 0.4646,0.0929 0.4028,0 20.7245,0 0.5577,0 0.5887,-0.0619 0.5575,-0.062 0.5577,-0.1239 0.5575,-0.1238 0.5267,-0.1859 0.5267,-0.1859 0.5267,-0.2169 0.4956,-0.2478 0.4957,-0.2789 0.4646,-0.3098 0.4647,-0.3097 0.4336,-0.3408 0.4338,-0.3718 0.4026,-0.3716 0.3718,-0.4028 0.3408,-0.3718 0.1549,0.3099 0.1859,0.3098 0.1859,0.3098 0.1859,0.2787 0.2167,0.248 0.2169,0.2787 0.2478,0.2477 0.2479,0.248 0.2787,0.2169 0.248,0.2167 0.2787,0.1859 0.3098,0.1859 0.3097,0.1859 0.3098,0.1549 0.31,0.1548 0.3097,0.1239 0.3408,0.1239 0.3408,0.093 0.3716,0.0619 0.3408,0.062 0.3718,0.062 0.3407,0.031 0.3718,0 0.3098,0 0.3098,-0.031 0.3097,-0.031 0.3098,-0.031 0.3098,-0.062 0.3097,-0.0929 0.279,-0.062 0.2787,-0.0929 0.2788,-0.1238 0.2787,-0.1241 0.2789,-0.1239 0.2478,-0.1238 0.2789,-0.1549 0.2478,-0.1549 0.2169,-0.1859 0.2477,-0.1859 0.2169,-0.1859 0.2169,-0.1859 0.2167,-0.2167 0.217,-0.2169 0.1859,-0.2169 0.1859,-0.2167 0.1548,-0.248 0.1859,-0.2477 0.1549,-0.2479 0.1239,-0.2478 0.1549,-0.2789 0.1238,-0.2788 0.0931,-0.2787 0.1238,-0.2788 0.1549,-0.5266 1.7039,-6.8773 1.5799,5.5452 0.062,0.1548 0.0308,0.1549 0.062,0.1549 0.0311,0.1549 0.0618,0.1549 0.031,0.1549 0.062,0.1548 0.0311,0.1549 0.0618,0.1859 0.062,0.1549 0.0621,0.1859 0.0618,0.1549 0.093,0.1859 0.0929,0.1859 0.062,0.1859 0.1239,0.1859 0.1238,0.2167 0.1239,0.2169 0.1551,0.2477 0.1549,0.2169 0.1857,0.1859 0.1549,0.217 0.1859,0.1859 0.1859,0.2167 0.2169,0.1859 0.1859,0.1548 0.2167,0.1859 0.2169,0.1549 0.2169,0.1859 0.2167,0.1239 0.248,0.1549 0.2169,0.1549 0.2477,0.124 0.2479,0.1239 0.2478,0.1239 0.2479,0.0928 0.2787,0.093 0.2478,0.0929 0.2789,0.093 0.2788,0.0619 0.2787,0.093 0.279,0.0619 0.2787,0.031 0.2787,0.062 0.3098,0.031 0.279,0 0.3097,0.031 0.2788,0 0.3097,0 0.279,-0.031 0.2787,0 0.2788,-0.031 0.2787,-0.062 0.279,-0.031 0.2787,-0.0619 0.2788,-0.062 0.2479,-0.0618 0.2787,-0.0931 0.248,-0.0928 0.2787,-0.0931 0.2477,-0.0928 0.248,-0.1239 0.2169,-0.1241 0.2477,-0.1238 0.248,-0.1239 0.2167,-0.1239 0.2169,-0.1548 0.2169,-0.1549 0.2167,-0.1551 0.2169,-0.1549 0.1859,-0.1857 0.1859,-0.1859 0.1859,-0.1549 0.1857,-0.2169 0.1859,-0.1859 0.1549,-0.1859 0.1549,-0.2167 0.1549,-0.2169 0.155,-0.2169 0.1239,-0.2169 0.1239,-0.1857 0.0928,-0.1859 0.0931,-0.1549 0.0928,-0.1859 0.0621,-0.1549 0.062,-0.1859 0.0928,-0.1549 0.0621,-0.1859 0.0618,-0.1548 0.062,-0.1549 0.031,-0.1859 0.0619,-0.1549 0.062,-0.1549 0.031,-0.1859 0.0619,-0.1549 0.031,-0.1549 1.7349,-6.0407 1.7657,6.9082 0,0.0618 0.0929,0.3098 0.093,0.3098 0.0929,0.3099 0.1238,0.3098 0.1241,0.2787 0.1239,0.2788 0.1549,0.2789 0.1548,0.2478 0.1859,0.2787 0.1549,0.2479 0.2169,0.2478 0.1859,0.2169 0.2167,0.2479 0.217,0.2167 0.2477,0.1859 0.2169,0.2169 0.2479,0.1859 0.2788,0.1549 0.2477,0.1859 0.279,0.1549 0.2787,0.1239 0.2787,0.1238 0.3098,0.1239 0.279,0.1241 0.3097,0.0618 0.3098,0.093 0.3097,0.0619 0.3408,0.062 0.3098,0.031 0.3408,0.031 0.3407,0 0.3408,0 0.3718,-0.031 0.3716,-0.062 0.3408,-0.062 0.3408,-0.0619 0.3408,-0.093 0.3407,-0.1239 0.3408,-0.1239 0.3098,-0.1548 0.3097,-0.1549 0.3098,-0.1859 0.279,-0.1859 0.2787,-0.1859 0.2788,-0.2167 0.2787,-0.2169 0.2479,-0.248 0.2169,-0.2477 0.2478,-0.2787 0.1859,-0.248 0.2169,-0.2787 0.1859,-0.3098 0.1857,-0.3098 0.1551,-0.3099 0.1238,-0.3098 0.1549,-0.3097 0.0929,-0.3408 0.093,-0.3408 0.0929,-0.3716 0.062,-0.3408 0.0618,-0.3718 0,-0.3408 0.031,-0.2787 0.3408,0.4026 0.7126,0.7436 0.7744,0.6816 0.8054,0.6813 0.8365,0.6197 0.8674,0.6196 0.8983,0.5267 0.9295,0.5264 0.9603,0.4649 0.9603,0.4336 1.0223,0.3718 1.0224,0.3408 1.0221,0.2787 1.0844,0.2478 1.0842,0.1859 1.0843,0.1548 1.1462,0.0621 1.0842,0.031 0.1549,0 0.1549,0 0.1859,0 0.1549,0 0.2169,0 0.1859,0.031 0.2167,0 0.2479,0 0.2167,0 0.248,0 0.2787,0 0.2479,0 0.2788,0 0.2787,0 0.3098,-0.031 0.2789,0 0.3098,0 0.3098,-0.031 0.3097,0 0.3098,-0.031 0.3408,-0.0311 0.3097,0 0.3408,-0.0308 0.3408,-0.031 0.3408,-0.062 0.3097,-0.031 0.3408,-0.0619 0.3408,-0.031 0.3408,-0.062 0.3408,-0.0619 0.3407,-0.093 0.3408,-0.0618 0.341,-0.0931 0.3404,-0.0928 0.3408,-0.0931 0.3407,-0.0928 0.3098,-0.1239 0.3408,-0.1241 0.3408,-0.1548 0.3097,-0.1239 0.31,-0.1549 0.3097,-0.1549 0.3098,-0.1859 0.3098,-0.1859 0.3097,-0.1859 0.2788,-0.2167 0.3098,-0.2169 0.2789,-0.2169 0.2477,-0.2477 0.248,-0.2788 0.2477,-0.2479 0.2479,-0.2788 0.2167,-0.3097 0.2169,-0.31 0.1859,-0.3098 0.1859,-0.3407 0.1549,-0.3716 0.1239,-0.3408 0.1239,-0.3718 0.093,-0.4026 0.0929,-0.3718 0.031,-0.4028 0.062,-0.4337 0,-0.3718 0,-10.8115 0,-0.2787 -0.031,-0.2789 -0.031,-0.2788 -0.0621,-0.2787 -0.0618,-0.279 -0.062,-0.2787 -0.0929,-0.2478 -0.124,-0.2479 -0.0929,-0.2477 -0.1239,-0.248 -0.1548,-0.2477 -0.1241,-0.2169 -0.1549,-0.2169 -0.1857,-0.2167 -0.1859,-0.2169 -0.1859,-0.1859 -0.1859,-0.1859 -0.2169,-0.1859 -0.1859,-0.1549 -0.2477,-0.1549 -0.2169,-0.1549 -0.2478,-0.1549 -0.2169,-0.1238 -0.2787,-0.0929 -0.248,-0.124 -0.2477,-0.0929 -0.2789,-0.062 -0.2788,-0.0619 -0.2787,-0.062 -0.2788,-0.031 -0.2789,-0.031 -0.2788,0 -0.8984,0 -2.3543,0 -6.01,0 -0.3097,0.031 -0.3718,0.062 -0.3406,0.0619 -0.3408,0.124 -0.3099,0.1549 -0.3098,0.1859 -0.2787,0.2167 -0.2478,0.2169 -0.2169,0.2478 -0.2169,0.2789 -0.1859,0.3098 -0.1549,0.3097 -0.1239,0.3408 -0.062,0.3408 -0.0618,0.3718 -0.031,0.3097 0,1.9517 0.031,0.3408 0.0618,0.3407 0.062,0.3716 0.1239,0.3098 0.1549,0.3408 0.1859,0.2789 0.2169,0.2788 0.2169,0.2477 0.2478,0.2479 0.2787,0.1859 0.3098,0.1859 0.3099,0.1549 0.3408,0.1239 0.3406,0.0928 0.3718,0.0621 0.3097,0 0.3098,0 0,1.7039 -0.0618,0.0308 -0.1859,0.062 -0.1549,0.031 -0.1859,0.031 -0.1859,0.0311 -0.1859,0.0308 -0.1859,0.031 -0.1857,0.031 -0.2169,0.031 -0.1859,0 -0.2479,0 -0.4955,0.031 -0.4028,0 -0.4336,0 -0.4029,-0.062 -0.3717,-0.031 -0.3716,-0.0929 -0.3718,-0.093 -0.3718,-0.1239 -0.3408,-0.1238 -0.3408,-0.1549 -0.3098,-0.1859 -0.3097,-0.1859 -0.3098,-0.1859 -0.2787,-0.2169 -0.279,-0.2478 -0.2477,-0.2479 -0.2479,-0.2477 -0.2168,-0.2788 -0.2169,-0.3097 -0.2169,-0.279 -0.1859,-0.3097 -0.1857,-0.3408 -0.1551,-0.3408 -0.1238,-0.3408 -0.1239,-0.3408 -0.0928,-0.3716 -0.0931,-0.3718 -0.062,-0.4028 -0.0619,-0.4026 -0.031,-0.4028 0,-0.4026 0,-0.4028 0.031,-0.4336 0.0619,-0.4337 0.062,-0.4028 0.0931,-0.3718 0.0928,-0.4026 0.1239,-0.3718 0.1238,-0.3408 0.1551,-0.3718 0.1549,-0.3407 0.1857,-0.3098 0.1859,-0.3098 0.1859,-0.3097 0.2169,-0.2788 0.2169,-0.2789 0.2478,-0.2478 0.2479,-0.2479 0.2477,-0.2477 0.2788,-0.2169 0.2789,-0.2168 0.3098,-0.1859 0.2787,-0.1858 0.3408,-0.1859 0.3098,-0.1549 0.3407,-0.1239 0.3408,-0.1241 0.3408,-0.1238 0.3718,-0.0929 0.3716,-0.062 0.3718,-0.0618 0.4028,-0.0621 0.4026,0 0.4028,-0.031 0.1859,0 0.1549,0 0.1859,0.031 0.1549,0 0.1549,0.031 0.1859,0 0.1548,0.0311 0.1549,0.0308 0.1859,0.031 0.1549,0.031 0.1549,0.031 0.1549,0.031 0.1549,0.0619 0.1548,0.031 0.1549,0.062 0.2478,0.0619 0.093,0.031 0.0618,0 0.1549,0.062 0.1551,0.031 0.1549,0.0619 0.1549,0.031 0.1548,0.031 0.1549,0.031 0.1549,0.0308 0.1549,0.031 0.1549,0.0311 0.1548,0 0.1859,0.031 0.1549,0 0.1549,0 0.1859,0 0.3408,0 0.3408,-0.031 0.3716,-0.0311 0.3407,-0.0618 0.3408,-0.093 0.3098,-0.0929 0.3408,-0.1241 0.3097,-0.1238 0.31,-0.1239 0.3098,-0.1549 0.2787,-0.1859 0.2788,-0.1859 0.2791,-0.1859 0.2785,-0.1859 0.2478,-0.2477 0.2479,-0.2169 0.2169,-0.2477 0.2167,-0.248 0.2169,-0.2477 0.1859,-0.2787 0.1859,-0.279 0.1549,-0.3098 0.1549,-0.3097 0.1549,-0.3098 0.1239,-0.3097 0.1238,-0.3098 0.0931,-0.3408 0.0618,-0.3408 0.062,-0.3408 0.0621,-0.3407 0.0308,-0.3718 0,-0.3408 0,-0.2788 -0.0308,-0.2787 -0.0311,-0.2789 -0.031,-0.2478 -0.031,-0.2787 -0.0618,-0.248 -0.062,-0.2477 -0.0931,-0.2479 -0.0618,-0.2788 -0.0931,-0.2169 -0.1238,-0.2477 -0.0929,-0.2479 -0.1241,-0.217 -0.1238,-0.2167 -0.1549,-0.2169 -0.1239,-0.2169 -0.1549,-0.2167 -0.1548,-0.2169 -0.1547,-0.1859 -0.1861,-0.1859 -0.1859,-0.1859 -0.1859,-0.1857 -0.1859,-0.1549 -0.1859,-0.1551 -0.2167,-0.1857 -0.2169,-0.124 -0.1859,-0.1549 -0.2478,-0.1239 -0.2169,-0.1239 -0.2169,-0.1238 -0.4646,-0.2169 -0.3098,-0.0931 -0.2169,-0.0928 -0.2167,-0.0621 -0.2169,-0.0618 -0.2478,-0.093 -0.2169,-0.0619 -0.2169,-0.062 -0.2477,-0.062 -0.2169,-0.0619 -0.2478,-0.062 -0.2169,-0.031 -0.2479,-0.0619 -0.2167,-0.062 -0.248,-0.031 -0.2169,-0.0618 -0.2477,-0.0311 -0.2479,-0.031 -0.2478,-0.031 -0.2169,-0.0618 -0.2477,-0.031 -0.2479,-0.0311 -0.2478,0 -0.2169,-0.031 -0.2477,-0.031 -0.248,-0.0308 -0.2477,0 -0.2479,-0.031 -0.2478,0 -0.2479,0 -0.2477,-0.031 -0.2479,0 -0.2478,0 -1.1152,0.031 -1.1462,0.0928 -1.0843,0.1241 -1.0842,0.1857 -1.0844,0.2479 -1.0221,0.2788 -1.0224,0.3407 -1.0223,0.3718 -0.9603,0.4337 -0.9603,0.4646 -0.9295,0.5267 -0.8983,0.5577 -0.8674,0.5885 -0.8365,0.6195 -0.8054,0.6816 -0.7744,0.7126 -0.7126,0.7434 -0.7126,0.7746 -0.6505,0.8054 -0.6195,0.8364 -0.5885,0.8673 -0.5267,0.8985 -0.4957,0.8982 -0.4336,0.9605 z"
               id="_202169848"
               style="fill:#faa831" />
          </g>
        </g>
      </g>
    </g>
  </g>
</svg>
