<?xml version="1.0" encoding="UTF-8" standalone="no"?>
<svg xmlns:dc="http://purl.org/dc/elements/1.1/" xmlns:cc="http://creativecommons.org/ns#" xmlns:rdf="http://www.w3.org/1999/02/22-rdf-syntax-ns#" xmlns:svg="http://www.w3.org/2000/svg" xmlns="http://www.w3.org/2000/svg" xmlns:sodipodi="http://sodipodi.sourceforge.net/DTD/sodipodi-0.dtd" xmlns:inkscape="http://www.inkscape.org/namespaces/inkscape" id="svg2" version="1.1" inkscape:version="0.48.0 r9654" width="219.68547" height="219.68427" xml:space="preserve" sodipodi:docname="Itau.eps.pdf"><metadata id="metadata8"><rdf:RDF><cc:Work rdf:about=""><dc:format>image/svg+xml</dc:format><dc:type rdf:resource="http://purl.org/dc/dcmitype/StillImage"/><dc:title/></cc:Work></rdf:RDF></metadata><defs id="defs6"/><sodipodi:namedview pagecolor="#ffffff" bordercolor="#666666" borderopacity="1" objecttolerance="10" gridtolerance="10" guidetolerance="10" inkscape:pageopacity="0" inkscape:pageshadow="2" inkscape:window-width="640" inkscape:window-height="480" id="namedview4" showgrid="false" fit-margin-top="0" fit-margin-left="0" fit-margin-right="0" fit-margin-bottom="0" inkscape:zoom="1.2160482" inkscape:cx="109.842" inkscape:cy="109.8402" inkscape:window-x="130" inkscape:window-y="50" inkscape:window-maximized="0" inkscape:current-layer="g10"/><g id="g10" inkscape:groupmode="layer" inkscape:label="Itau.eps" transform="matrix(1.25,0,0,-1.25,-262.2048,636.02427)"><g transform="scale(0.24,0.24)" id="g14"><path inkscape:connector-curvature="0" id="path18" style="fill:#2e3092;fill-opacity:1;fill-rule:evenodd;stroke:none" d="m 1008.05,2120.08 465.31,-0.28 c 73.03,0 133.21,-60.17 132.94,-133.49 l 0,-465.3 c 0,-73.31 -60.18,-133.21 -133.49,-133.21 l -465.58,0.27 c -73.308,0.27 -133.214,60.18 -133.214,133.49 l 0.547,465.3 c 0,73.31 59.906,133.49 133.487,133.22"/><path inkscape:connector-curvature="0" id="path20" style="fill:#fff200;fill-opacity:1;fill-rule:evenodd;stroke:none" d="m 1503.17,1786.08 -53.06,0 -21.89,-41.58 37.2,0 37.75,41.58 z m 35.29,-67.57 -51.7,0 0,-111.6 c 0,-34.2 -22.98,-44.04 -39.94,-44.04 -16.14,0 -33.92,6.01 -33.64,35.83 l 0,119.81 -51.7,0 -0.28,-127.2 c 0,-49.24 28.18,-71.12 67.02,-71.12 27.08,-0.27 48.14,11.49 59.91,32.28 l 0.55,0 0,-27.08 49.78,0 0,193.12"/><path inkscape:connector-curvature="0" id="path22" style="fill:#fff200;fill-opacity:1;fill-rule:evenodd;stroke:none" d="m 1320.99,1667.36 c 0,47.87 -50.33,56.35 -78.23,56.35 -40.21,0 -82.07,-8.48 -88.36,-67.57 l 50.06,0 c 1.64,11.22 6.29,26.81 32,26.81 13.41,0 34.2,-1.09 34.2,-22.43 0,-10.94 -10.12,-14.22 -18.33,-15.32 l -46.5,-6.84 c -33.1,-4.65 -57.72,-24.07 -57.72,-61.82 0,-39.93 30.64,-56.35 59.91,-56.35 35.56,0 52.24,16.14 63.73,27.9 1.1,-10.66 1.92,-13.4 4.93,-22.7 l 44.59,0.27 c 0,21.34 -0.28,36.93 -0.28,37.21 l 0,104.49"/><path inkscape:connector-curvature="0" id="path24" style="fill:#fff200;fill-opacity:1;fill-rule:evenodd;stroke:none" d="m 1100.51,1786.08 -51.7,0 0,-67.29 -26.81,0 0,-36.38 26.54,0 0,-117.36 c 0,-24.89 7.93,-41.85 52.79,-41.85 l 6.84,0 c 8.21,0 16.42,0.55 24.35,0.82 l 0,38.57 c -3.56,-0.27 -7.39,-0.82 -10.67,-0.82 -21.06,0 -21.61,4.38 -21.61,15.87 l 0.27,104.77 32.28,0 0,36.38 -32.28,0 0,67.29"/><path inkscape:connector-curvature="0" id="path26" style="fill:#fff200;fill-opacity:1;fill-rule:evenodd;stroke:none" d="m 998.207,1786.35 -55.805,0 -0.273,-260.69 55.805,0 0.273,260.69"/><path inkscape:connector-curvature="0" id="path28" style="fill:#2e3092;fill-opacity:1;fill-rule:evenodd;stroke:none" d="m 1270.66,1594.6 0,24.89 c -5.2,-4.1 -13.95,-7.39 -35.29,-10.4 -19.42,-3.28 -35.29,-8.2 -35.29,-29.27 0,-17.5 14.23,-23.25 24.08,-23.25 22.97,0 46.5,14.5 46.5,38.03"/></g></g></svg>