<?xml version="1.0" encoding="UTF-8" standalone="no"?>
<!-- Created with Inkscape (http://www.inkscape.org/) -->

<svg
   xmlns:dc="http://purl.org/dc/elements/1.1/"
   xmlns:cc="http://creativecommons.org/ns#"
   xmlns:rdf="http://www.w3.org/1999/02/22-rdf-syntax-ns#"
   xmlns:svg="http://www.w3.org/2000/svg"
   xmlns="http://www.w3.org/2000/svg"
   version="1.1"
   width="553.58075"
   height="123.13701"
   id="svg2">
  <defs
     id="defs4">
 <style
   type="text/css"
   id="style2989" />

  </defs>
  <metadata
     id="metadata7">
    <rdf:RDF>
      <cc:Work
         rdf:about="">
        <dc:format>image/svg+xml</dc:format>
        <dc:type
           rdf:resource="http://purl.org/dc/dcmitype/StillImage" />
        <dc:title></dc:title>
      </cc:Work>
    </rdf:RDF>
  </metadata>
  <g
     transform="translate(-86.066753,-430.79368)"
     id="layer1">
    <g
       transform="matrix(3.543307,0,0,3.543307,-3.54419,-13.983476)"
       id="g3058"
       style="fill-rule:evenodd">
      <g
         id="Camada_x0020_1">
  <metadata
   id="CorelCorpID_0Corel-Layer" />

  <polygon
   points="51.4014,125.526 51.4014,147.172 38.7373,160.278 25.2902,147.467 25.3368,125.526 "
   id="polygon2993"
   style="fill:none" />

  <polyline
   id="polyline2995"
   points="38.7373,160.278 38.7373,134.95 51.4014,147.172 "
   class="fil0"
   style="fill:none" />

  <path
   d="m 67.8571,134.987 c 4.1138,1.4232 3.4265,7.8291 -2.1717,7.6208 l -5.5958,0 0,-15.1674 5.1171,0.0332 c 4.9035,-0.4069 6.7931,5.4129 2.6504,7.5134 z"
   id="path2997"
   style="fill:none" />

  <path
   d="m 63.3834,136.35 c 4.9579,-0.6378 5.2523,4.3933 0,4.0497 l 0,-4.0497 z"
   id="path2999"
   style="fill:none" />

  <path
   d="m 63.457,129.87 c 4.958,-0.6379 5.2523,4.3932 0,4.0496 l 0,-4.0496 z"
   id="path3001"
   style="fill:none" />

  <polygon
   points="76.9318,139.275 76.0483,142.662 72.7349,142.662 77.2264,127.458 81.055,127.458 85.2519,142.699 82.0491,142.699 81.1286,139.275 "
   id="polygon3003"
   style="fill:none" />

  <polygon
   points="77.2264,137.287 79.0126,130.83 80.6133,137.287 "
   id="polygon3005"
   style="fill:none" />

  <polygon
   points="99.1129,142.791 94.9896,142.791 90.9031,131.893 90.9031,142.754 87.8843,142.754 87.9212,127.513 91.8603,127.513 95.91,138.005 95.91,127.476 99.1129,127.476 "
   id="polygon3007"
   style="fill:none" />

  <path
   d="m 109.126,132.114 c 0.2468,-3.6075 -3.5696,-3.6444 -3.6078,0.2209 l 0,5.2278 c 0.1643,4.3241 3.993,4.3612 4.0864,0.5522 l 2.982,0 c 0.0549,6.9737 -10.1303,5.9672 -10.0136,-0.4418 l 0,-5.1909 c 0.1368,-6.5387 9.7578,-6.8087 9.4245,-0.3682 l -2.8715,0 z"
   id="path3009"
   style="fill:none" />

  <line
   id="line3011"
   y2="138.299"
   x2="115.495"
   y1="131.231"
   x1="115.495"
   class="fil0"
   style="fill:none" />

  <path
   d="m 115.495,138.299 c 0.5293,6.4919 9.6227,6.6387 10.0505,-0.2578 l 0,-6.2586 c -0.6278,-6.1483 -9.9791,-5.2649 -10.0505,-0.5522"
   id="path3013"
   style="fill:none" />

  <line
   id="line3015"
   y2="138.815"
   x2="118.551"
   y1="131.82001"
   x1="118.551"
   class="fil0"
   style="fill:none" />

  <path
   d="m 118.551,138.815 c 0.1041,2.7675 3.8836,3.0067 4.0496,-0.0553 l 0,-7.2524 c -0.1112,-2.8425 -4.259,-2.6034 -4.0496,0.3129"
   id="path3017"
   style="fill:none" />

  <path
   d="m 137.916,142.791 -2.8715,-0.0367 0,-15.2781 5.0804,0 c 4.4038,-0.1949 5.8272,5.9776 1.8777,8.0255 1.4304,-0.002 2.5139,1.0951 2.388,2.5771 l -0.0319,4.7491 -2.8715,0 0.0367,-5.1172 c -0.4268,-1.8582 -3.3599,-2.0546 -3.6079,-0.9205 l 0,6.0008 z"
   id="path3019"
   style="fill:none" />

  <path
   d="m 138.026,129.905 c 4.4363,-0.5388 4.8224,4.6606 0,4.5282 l 0,-4.5282 z"
   id="path3021"
   style="fill:none" />

  <polygon
   points="150.82,135.704 155.569,135.704 155.569,133.974 150.893,134.01 150.893,129.814 156.195,129.814 156.195,127.531 147.948,127.531 147.948,142.772 156.195,142.772 156.195,140.453 150.857,140.453 "
   id="polygon3023"
   style="fill:none" />

  <polygon
   points="162.232,139.422 161.348,142.809 158.035,142.809 162.526,127.605 166.355,127.605 170.552,142.846 167.349,142.846 166.429,139.422 "
   id="polygon3025"
   style="fill:none" />

  <polygon
   points="162.526,137.434 164.313,130.977 165.913,137.434 "
   id="polygon3027"
   style="fill:none" />

  <polygon
   points="173.202,127.494 173.202,142.809 181.523,142.809 181.523,140.453 176.221,140.453 176.221,127.494 "
   id="polygon3029"
   style="fill:none" />

  <polygon
   points="51.4014,125.526 25.3368,125.526 25.2902,147.467 38.7373,160.278 38.7373,134.95 51.4014,147.172 "
   id="polygon3031"
   style="fill:#00958f" />

  <polygon
   points="38.7373,134.95 38.7373,160.278 51.4014,147.172 "
   id="polygon3033"
   style="fill:#ffc425" />

  <path
   d="m 63.457,129.87 c 4.958,-0.6379 5.2523,4.3932 0,4.0496 l 0,-4.0496 z m -3.3674,-2.4304 0,15.1674 5.5958,0 c 5.5982,0.2083 6.2855,-6.1976 2.1717,-7.6208 4.1427,-2.1005 2.2531,-7.9203 -2.6504,-7.5134 l -5.1171,-0.0332 z m 3.2938,8.9097 c 4.9579,-0.6378 5.2523,4.3933 0,4.0497 l 0,-4.0497 z"
   id="path3035"
   style="fill:#888a8c" />

  <path
   d="m 77.2264,127.458 -4.4915,15.2043 3.3134,0 0.8835,-3.3869 4.1968,0 0.9205,3.4237 3.2028,0 -4.1969,-15.2411 -3.8286,0 z m 0,9.8295 1.7862,-6.4569 1.6007,6.4569 -3.3869,0 z"
   id="path3037"
   style="fill:#888a8c" />

  <polygon
   points="95.91,127.476 95.91,138.005 91.8603,127.513 87.9212,127.513 87.8843,142.754 90.9031,142.754 90.9031,131.893 94.9896,142.791 99.1129,142.791 99.1129,127.476 "
   id="polygon3039"
   style="fill:#888a8c" />

  <path
   d="m 111.998,132.114 c 0.3333,-6.4405 -9.2877,-6.1705 -9.4245,0.3682 l 0,5.1909 c -0.1167,6.409 10.0685,7.4155 10.0136,0.4418 l -2.982,0 c -0.0934,3.809 -3.9221,3.7719 -4.0864,-0.5522 l 0,-5.2278 c 0.0382,-3.8653 3.8546,-3.8284 3.6078,-0.2209 l 2.8715,0 z"
   id="path3041"
   style="fill:#888a8c" />

  <path
   d="m 125.546,131.783 c -0.6278,-6.1483 -9.9791,-5.2649 -10.0505,-0.5522 l 0,7.0686 c 0.5293,6.4919 9.6227,6.6387 10.0505,-0.2578 l 0,-6.2586 z m -6.9948,7.0317 0,-6.9948 c -0.2094,-2.9163 3.9384,-3.1554 4.0496,-0.3129 l 0,7.2524 c -0.166,3.062 -3.9455,2.8228 -4.0496,0.0553 z"
   id="path3043"
   style="fill:#888a8c" />

  <path
   d="m 135.044,127.476 0,15.2781 2.8715,0.0367 0,-6.0008 c 0.248,-1.1341 3.1811,-0.9377 3.6079,0.9205 l -0.0367,5.1172 2.8715,0 0.0319,-4.7491 c 0.1259,-1.482 -0.9576,-2.5795 -2.388,-2.5771 3.9495,-2.0479 2.5261,-8.2204 -1.8777,-8.0255 l -5.0804,0 z m 2.9821,6.9579 0,-4.5282 c 4.4363,-0.5388 4.8224,4.6606 0,4.5282 z"
   id="path3045"
   style="fill:#888a8c" />

  <polygon
   points="155.569,133.974 150.893,134.01 150.893,129.814 156.195,129.814 156.195,127.531 147.948,127.531 147.948,142.772 156.195,142.772 156.195,140.453 150.857,140.453 150.82,135.704 155.569,135.704 "
   id="polygon3047"
   style="fill:#888a8c" />

  <path
   d="m 162.526,127.605 -4.4914,15.2043 3.3133,0 0.8836,-3.387 4.1968,0 0.9205,3.4237 3.2027,0 -4.1969,-15.241 -3.8286,0 z m 0,9.8294 1.7863,-6.4568 1.6007,6.4568 -3.387,0 z"
   id="path3049"
   style="fill:#888a8c" />

  <polygon
   points="173.202,142.809 181.523,142.809 181.523,140.453 176.221,140.453 176.221,127.494 173.202,127.494 "
   id="polygon3051"
   style="fill:#888a8c" />

 </g>
    </g>
  </g>
</svg>
