<?xml version="1.0" encoding="UTF-8"?>
<!DOCTYPE svg PUBLIC "-//W3C//DTD SVG 1.1//EN" "http://www.w3.org/Graphics/SVG/1.1/DTD/svg11.dtd">
<!-- Creator: CorelDRAW -->
<svg xmlns="http://www.w3.org/2000/svg" xml:space="preserve" width="110mm" height="30mm" style="shape-rendering:geometricPrecision; text-rendering:geometricPrecision; image-rendering:optimizeQuality; fill-rule:evenodd; clip-rule:evenodd"
viewBox="0 0 110 30"
 xmlns:xlink="http://www.w3.org/1999/xlink">
 <defs>
  <style type="text/css">
   <![CDATA[
    .fil0 {fill:#004F6D}
   ]]>
  </style>
 </defs>
 <g id="Camada_x0020_1">
  <metadata id="CorelCorpID_0Corel-Layer"/>
  <path class="fil0" d="M59.9827 14.4752c0.3041,-0.1531 0.6311,-0.7274 0.6311,-1.3091 0,-1.3536 -0.7472,-2.5372 -2.4426,-2.5587l-5.1209 0.0014 0 10.0397 5.807 0c1.9474,0 3.1701,-1.204 3.1701,-3.2346 0,-1.4573 -0.6526,-2.5189 -2.0447,-2.9387zm-2.6515 -2.2542c0.599,0 0.9169,0.4007 0.9169,0.9451 0,0.6131 -0.3725,1.0633 -0.9169,1.0633 -0.0779,-0.0007 -0.7324,0 -1.2456,0l0 -2.0084 1.2456 0zm0.3401 6.5073l-1.5857 0 0 -2.5887 1.5857 0c1.0432,0 1.4146,0.4449 1.4146,1.2637 0,0.8184 -0.4321,1.325 -1.4146,1.325zm-13.5562 -8.104l0 6.2819 -2.328 -4.3977c-1.0435,-1.8263 -1.2146,-1.8838 -3.4036,-1.8838l-1.1525 -0.0004 0 10.0341 2.2998 0 0 -6.2826 2.3293 4.3977c1.0436,1.8281 1.2147,1.8845 3.4044,1.8845l1.1521 0.0004 0 -10.0341 -2.3015 0zm35.7142 0l0 6.2819 -2.3291 -4.3977c-1.0431,-1.8263 -1.2135,-1.8838 -3.4036,-1.8838l-1.1514 -0.0004 0 9.0798 -4.1671 -7.1914c-0.9412,-1.627 -1.924,-1.8884 -3.8004,-1.8884l-2.0165 0 0 10.0341 2.3424 0 -0.0024 -2.1371 3.4159 0 0.1425 0.2511 1.1102 1.886 5.2755 0 0 -6.2826 2.3283 4.3977c1.0435,1.8281 1.2143,1.8845 3.4043,1.8845l1.1515 0.0004 0 -10.0341 -2.3001 0zm-14.5288 6.0918l-0.0036 -4.1116c0,0 1.9509,3.3189 2.4003,4.1116l-2.3967 0zm-29.8535 -6.1006l-2.2599 0 -0.0219 8.0105c0,0 -0.5976,0.0233 -1.0435,0.0233 -1.693,0 -2.0084,-0.3665 -2.0084,-2.1759 0,-0.036 -0.0035,-4.5195 -0.0035,-5.8579l-3.0864 0c0,1.3593 0,5.9902 0,5.9902 0,3.3496 0.9422,4.0329 4.1201,4.0329 1.4513,0 4.3035,-0.0084 4.3035,-0.0084l0 -10.0147zm13.7477 -0.0088c-0.4543,0.0067 -0.9965,0.0113 -0.9965,0.0113l0 10.0404 3.0882 0 0 -8.2741c0,-1.2774 -0.5818,-1.7776 -2.0917,-1.7776zm53.4445 4.1472c-0.0085,-0.1901 -0.0237,-0.3746 -0.0459,-0.5524l0.0148 0c-0.2208,-2.3795 -1.4196,-3.6904 -3.9155,-3.7945 -0.0843,-0.0046 -0.1689,-0.0067 -0.255,-0.0067l-0.2886 -0.0011c-0.0067,0 -0.013,0.0011 -0.0201,0.0011 -0.007,0 -0.3016,0 -0.3016,0 -2.9422,0.0243 -4.191,1.6168 -4.2154,4.5745l-0.0014 0c0,0.0003 0,1.3271 0,1.3292 0,3.0156 1.2453,4.6384 4.2168,4.6634 0,0 0.2946,0 0.3016,0 0.0071,0 0.0134,0.0004 0.0201,0.0004l0.2886 -0.0004c0.0861,0 0.1707,-0.0025 0.255,-0.007 2.4959,-0.1052 3.6947,-1.4157 3.9155,-3.7956l-0.0148 0c0.0346,-0.2734 0.0533,-0.5598 0.0533,-0.8608 0,-0.0017 0,-1.5494 0,-1.5501l-0.0074 0zm-3.1306 2.4109l-0.0127 0c-0.0303,1.1021 -0.2653,1.7138 -1.3546,1.7184 -0.0043,0 -0.0078,0.0004 -0.0124,0.0004 -1.1956,0 -1.3712,-0.7222 -1.3712,-2.0151l0 -2.3703c0,-1.2923 0.1756,-2.0154 1.3712,-2.0154 0.0046,0 0.0081,0.0003 0.0124,0.0003 1.0893,0.0049 1.3243,0.6167 1.3546,1.7184l0.0127 0c-0.006,0.0956 -0.0095,0.1944 -0.0095,0.2967l0 2.3703c0,0.1026 0.0035,0.2011 0.0095,0.2963zm-7.154 -1.7275c0,0 0.0717,-0.5359 0.0717,-1.7082 0,-2.1025 -1.4366,-3.3182 -4.0252,-3.3531 -0.0378,-0.0004 -0.2121,-0.0004 -0.2505,-0.0004 -0.0413,0 -0.2166,0 -0.2579,0.0004 -3.4181,0.0441 -4.427,1.9593 -4.427,4.4848 0,0.3958 0,0.9578 0,0.9578 0,4.4126 1.5709,5.0451 5.226,5.0451 1.4912,0 3.4894,0 3.4894,0l0 -2.0154c0,0 -1.4408,-0.0014 -2.5294,-0.0014 -2.8575,0 -3.0124,-0.2703 -3.0124,-3.2678l0.0049 -0.5613c0,-1.392 0.0533,-2.5086 1.2757,-2.5474 0.0222,-0.0003 0.1347,-0.0003 0.1566,-0.0003 0.0176,0 0.1252,0 0.1418,0.0003 0.8001,0.0152 1.234,0.4138 1.234,1.7964 0,0.7482 -0.0074,1.1567 -0.0074,1.1567l2.9097 0.0138zm-79.7394 -2.8713c-0.5136,0.1521 -1.0043,0.3362 -1.4689,0.5482 -0.0773,-2.2398 0.7397,-4.1716 2.3689,-5.0556 0.6216,-0.3376 1.3066,-0.4932 2.0182,-0.4847 0.7108,0.0285 1.3871,0.2197 1.9897,0.5894 1.6774,1.0277 2.3805,3.1867 2.0545,5.588 -0.1164,0.8615 -0.3658,1.7548 -0.7503,2.6378 -0.2032,0.4685 -0.4449,0.9338 -0.7246,1.3903 -0.5306,0.8657 -1.1511,1.6227 -1.8253,2.2553 -0.4357,-0.6128 -0.8135,-1.3582 -1.1024,-2.1978 0.3418,-0.2562 0.678,-0.5394 1.0043,-0.8495 0.4816,-0.4569 0.9077,-0.9388 1.2721,-1.4302 1.6055,-2.1632 2.0377,-4.5103 0.8933,-5.716 -0.2731,-0.2872 -0.6153,-0.4886 -1.009,-0.6089 -0.3958,-0.1136 -0.7919,-0.1316 -1.1775,-0.0385 -1.1409,0.2738 -1.934,1.4527 -2.2416,3.0688 -0.4304,0.0734 -0.8653,0.1746 -1.3014,0.3034zm0.0928 6.6164c-1.5529,0.5411 -2.9704,0.4445 -3.7783,-0.4068 -0.273,-0.2872 -0.4557,-0.6396 -0.5556,-1.0393 -0.0928,-0.4011 -0.0892,-0.7983 0.0233,-1.1783 0.4717,-1.5935 2.7206,-2.3928 5.3964,-2.0838 0.6075,0.0702 1.2383,0.1972 1.8747,0.3859 0.4318,0.1281 0.8449,0.2773 1.2379,0.4459 0.5828,-0.6702 1.0396,-1.3705 1.3522,-2.0542 -0.8841,-0.267 -1.8507,-0.4261 -2.8656,-0.453 -0.5352,-0.0141 -1.059,0.0099 -1.5667,0.0671 -0.9571,0.1093 -1.8549,0.34 -2.6596,0.6695 -2.2422,0.9187 -3.7606,2.6064 -3.8121,4.5735 -0.0176,0.7069 0.1542,1.3878 0.4851,2.0182 0.3482,0.6205 0.8251,1.1359 1.4284,1.5049 1.5801,0.9688 3.6614,0.7112 5.5629,-0.4762 -0.4159,-0.2963 -0.8209,-0.6297 -1.2093,-0.998 -0.3295,-0.3129 -0.635,-0.6392 -0.9137,-0.9754zm6.5966 -2.413c1.246,1.0742 1.8708,2.3502 1.5377,3.4752 -0.1125,0.3803 -0.3266,0.7151 -0.623,1.0004 -0.3009,0.2809 -0.6462,0.477 -1.0318,0.5691 -1.6161,0.388 -3.4329,-1.1592 -4.5032,-3.6308 -0.2435,-0.5623 -0.4481,-1.1719 -0.6026,-1.8172 -0.1055,-0.4374 -0.1824,-0.871 -0.2335,-1.295 -0.8717,-0.169 -1.7064,-0.2145 -2.4547,-0.1439 0.211,0.8999 0.556,1.8168 1.0404,2.7082 0.2558,0.471 0.538,0.9127 0.8417,1.3229 0.5726,0.7747 1.2217,1.4366 1.9093,1.9689 1.9166,1.4831 4.1377,1.953 5.867,1.0146 0.6216,-0.3373 1.1243,-0.8273 1.5057,-1.4288 0.363,-0.6117 0.5704,-1.283 0.5887,-1.9893 0.0487,-1.8531 -1.2153,-3.5267 -3.194,-4.5797 -0.0487,0.5083 -0.1348,1.0251 -0.2597,1.5458 -0.1058,0.4421 -0.2363,0.87 -0.388,1.2796z"/>
 </g>
</svg>
